<svg xmlns="http://www.w3.org/2000/svg" xmlSpace="preserve" width="16" height="16">
   <path d="M2.157 0C1.372 0 .675.759.675 1.741v2.007c0 .099.048.19.09.272h14.441V2.53c0-.333-.179-.6-.472-.6H8.827V1.74C8.827.76 8.247 0 7.462 0ZM.597 5.226a.59.67 0 0 0-.444.226.59.67 0 0 0-.15.526l.92 9.42a.597.677 0 0 0 .594.602h13.16a.594.674 0 0 0 .595-.619l.725-9.419a.728.728 0 0 0-.155-.516.561.561 0 0 0-.44-.22zm7.461 1.12a.282.32 0 0 1 .134.018l2.4 1.021a1.223 1.387 0 0 1 .794 1.299v1.394a.282.32 0 0 1-.382.3L8.376 9.26v3.698a.283.321 0 0 1-.007.069c.004.047.007.096.007.145 0 .964-.857 1.707-1.882 1.707s-1.88-.742-1.88-1.707c0-.965.855-1.707 1.88-1.707.51 0 .976.183 1.318.485V6.664a.282.32 0 0 1 .246-.317z"/>
</svg>